<svg xmlns:xlink="http://www.w3.org/1999/xlink" xmlns="http://www.w3.org/2000/svg" width="13" height="12" viewBox="0 0 13 12" fill="none" preserveAspectRatio="xMidYMid meet" class="b9l0eqez kjemk6od l7jjieqr ms8wnqe5"><path d="M9.54 3.467a3.12 3.12 0 0 0-.437-1.62A3.164 3.164 0 0 0 7.927.67 3.107 3.107 0 0 0 6.313.233c-.587 0-1.13.146-1.626.438A3.232 3.232 0 0 0 3.51 1.847a3.158 3.158 0 0 0-.43 1.62v1.237a1.629 1.629 0 0 0-.842.752c-.086.16-.148.335-.184.526A4.936 4.936 0 0 0 2 6.837V9.25c0 .378.018.663.055.854.036.192.098.367.184.527.155.291.38.517.677.677.155.086.328.148.52.184.196.037.48.055.854.055h4.04c.374 0 .656-.018.848-.055.196-.036.371-.098.526-.184.292-.155.517-.38.677-.677.086-.16.148-.335.184-.527.037-.19.055-.476.055-.854V6.837c0-.378-.018-.663-.055-.855a1.804 1.804 0 0 0-.184-.526 1.615 1.615 0 0 0-.841-.752V3.467Zm-5.168 0c0-.351.087-.675.26-.97a1.916 1.916 0 0 1 1.681-.972 1.916 1.916 0 0 1 1.675.97c.173.297.26.62.26.972V4.54H4.372V3.467Z" fill="#3B4A54"></path></svg>