<svg xmlns:xlink="http://www.w3.org/1999/xlink" xmlns="http://www.w3.org/2000/svg" width="36" height="36" viewBox="0 0 36 36" fill="none" class=""><path fill="#54656F" fill-rule="evenodd" clip-rule="evenodd" d="M18 31.5c.09 0 .182 0 .272-.003a1.5 1.5 0 0 0-.06-3c-.07.002-.14.003-.212.003v3Zm0-24c.071 0 .142 0 .213.002a1.5 1.5 0 0 0 .06-3L18 4.5v3Zm6.515-1.326a1.5 1.5 0 0 0-1.45 2.626c.124.068.246.139.367.212a1.5 1.5 0 1 0 1.554-2.566 13.503 13.503 0 0 0-.47-.272Zm5.039 4.84a1.5 1.5 0 0 0-2.566 1.554c.073.12.144.243.212.366a1.5 1.5 0 0 0 2.626-1.45 13.535 13.535 0 0 0-.272-.47Zm1.943 6.714a1.5 1.5 0 0 0-3 .06 10.76 10.76 0 0 1 0 .425 1.5 1.5 0 0 0 3 .06 13.693 13.693 0 0 0 0-.545Zm-1.67 6.787a1.5 1.5 0 0 0-2.627-1.45c-.068.124-.139.246-.212.367a1.5 1.5 0 1 0 2.566 1.554c.094-.155.185-.312.272-.47Zm-4.841 5.039a1.5 1.5 0 0 0-1.554-2.566c-.12.073-.243.144-.366.212a1.5 1.5 0 0 0 1.45 2.626c.158-.087.315-.178.47-.272ZM18 4.5C10.544 4.5 4.5 10.544 4.5 18S10.544 31.5 18 31.5v-3c-5.8 0-10.5-4.701-10.5-10.5S12.2 7.5 18 7.5v-3Z"></path><path fill="#54656F" d="M23.325 12.01a.865.865 0 0 1 1.21 1.21l-4.564 6.087a1.951 1.951 0 1 1-2.732-2.732l6.086-4.564Z"></path></svg>